<?xml version="1.0" ?><svg id="Layer_1" style="enable-background:new 0 0 128 128;" version="1.1" viewBox="0 0 128 128" xml:space="preserve" xmlns="http://www.w3.org/2000/svg" xmlns:xlink="http://www.w3.org/1999/xlink"><style type="text/css">
	.st0{fill-rule:evenodd;clip-rule:evenodd;}
	.st1{fill-rule:evenodd;clip-rule:evenodd;fill:#7ACED7;}
</style><g id="XMLID_1_"><path class="st0" d="M112,96c8.8,0,16,7.2,16,16s-7.2,16-16,16c-8.2,0-14.9-6.1-15.9-14l-31.8,0c-1.1,0-2-0.9-2-2   V68.5H32.5c-1,7.9-7.7,14-15.9,14c-8.8,0-16-7.2-16-16s7.2-16,16-16c8.2,0,14.9,6.1,15.9,14h29.8V16c0-1.1,0.9-2,2-2l31.8,0   c1-7.9,7.7-14,15.9-14c8.8,0,16,7.2,16,16s-7.2,16-16,16c-8.2,0-14.9-6.1-15.9-14l-29.8,0v44.4v2.1h1h0.9h27.9   c1-7.9,7.7-14,15.9-14c8.8,0,16,7.2,16,16s-7.2,16-16,16c-8.2,0-14.9-6.1-15.9-14H71.9h-5.6V110l29.8,0C97.1,102.1,103.9,96,112,96   L112,96z M112,100c-6.6,0-12,5.4-12,12c0,6.6,5.4,12,12,12c6.6,0,12-5.4,12-12C124,105.4,118.6,100,112,100L112,100z M112,4   c-6.6,0-12,5.4-12,12c0,6.6,5.4,12,12,12c6.6,0,12-5.4,12-12C124,9.4,118.6,4,112,4L112,4z M112,54.5c-6.6,0-12,5.4-12,12   c0,6.6,5.4,12,12,12c6.6,0,12-5.4,12-12C124,59.9,118.6,54.5,112,54.5L112,54.5z M16.7,54.5c-6.6,0-12,5.4-12,12   c0,6.6,5.4,12,12,12c6.6,0,12-5.4,12-12C28.7,59.9,23.3,54.5,16.7,54.5z" id="XMLID_17_"/><path class="st1" d="M112,100c6.6,0,12,5.4,12,12c0,6.6-5.4,12-12,12c-6.6,0-12-5.4-12-12   C100,105.4,105.4,100,112,100L112,100z M112,4c6.6,0,12,5.4,12,12c0,6.6-5.4,12-12,12c-6.6,0-12-5.4-12-12C100,9.4,105.4,4,112,4   L112,4z M112,54.5c6.6,0,12,5.4,12,12c0,6.6-5.4,12-12,12c-6.6,0-12-5.4-12-12C100,59.9,105.4,54.5,112,54.5L112,54.5z M16.7,54.5   c6.6,0,12,5.4,12,12c0,6.6-5.4,12-12,12c-6.6,0-12-5.4-12-12C4.7,59.9,10.1,54.5,16.7,54.5z" id="XMLID_12_"/></g></svg>